<svg xmlns="http://www.w3.org/2000/svg" viewBox="0 0 760 470" width="760" height="470" role="img" aria-labelledby="t d" xml:space="preserve"><title id="t">Default deny: a role sees only the tools it has access to</title><desc id="d">strazad catalogs 41 tools from two MCP servers, demo-tools with 14 and midpoint with 27. The application role demo-tools-readers starts with an empty catalog, because a tool without access does not exist for the role. An administrator gives the role access to four demo-tools tools. Exactly those four appear in its catalog: echo and get-annotated-message are visible, and get-env and get-sum are approve_gated, so a call to them needs approval. The other 37 tools stay out of its catalog.</desc><style>text{white-space:pre}@keyframes k-lit0{0.00%{opacity:0}23.57%{opacity:0}25.36%{opacity:1}93.57%{opacity:1}95.36%{opacity:0}100.00%{opacity:0}}
.lit0{opacity:1;animation:k-lit0 14s linear infinite}
@keyframes k-lit1{0.00%{opacity:0}24.64%{opacity:0}26.43%{opacity:1}93.57%{opacity:1}95.36%{opacity:0}100.00%{opacity:0}}
.lit1{opacity:1;animation:k-lit1 14s linear infinite}
@keyframes k-lit2{0.00%{opacity:0}25.71%{opacity:0}27.50%{opacity:1}93.57%{opacity:1}95.36%{opacity:0}100.00%{opacity:0}}
.lit2{opacity:1;animation:k-lit2 14s linear infinite}
@keyframes k-lit3{0.00%{opacity:0}26.79%{opacity:0}28.57%{opacity:1}93.57%{opacity:1}95.36%{opacity:0}100.00%{opacity:0}}
.lit3{opacity:1;animation:k-lit3 14s linear infinite}
@keyframes k-zero{0.00%{opacity:1}27.14%{opacity:1}28.57%{opacity:0}95.00%{opacity:0}97.14%{opacity:1}100.00%{opacity:1}}
.zero{opacity:0;animation:k-zero 14s linear infinite}
@keyframes k-four{0.00%{opacity:0}27.86%{opacity:0}29.29%{opacity:1}92.50%{opacity:1}93.93%{opacity:0}100.00%{opacity:0}}
.four{opacity:1;animation:k-four 14s linear infinite}
@keyframes k-empty{0.00%{opacity:1}25.00%{opacity:1}27.14%{opacity:0}95.00%{opacity:0}97.14%{opacity:1}100.00%{opacity:1}}
.empty{opacity:0;animation:k-empty 14s linear infinite}
@keyframes k-row0{0.00%{opacity:0}28.57%{opacity:0}30.36%{opacity:1}92.50%{opacity:1}94.29%{opacity:0}100.00%{opacity:0}}
.row0{opacity:1;animation:k-row0 14s linear infinite}
@keyframes k-row1{0.00%{opacity:0}30.36%{opacity:0}32.14%{opacity:1}92.50%{opacity:1}94.29%{opacity:0}100.00%{opacity:0}}
.row1{opacity:1;animation:k-row1 14s linear infinite}
@keyframes k-row2{0.00%{opacity:0}32.14%{opacity:0}33.93%{opacity:1}92.50%{opacity:1}94.29%{opacity:0}100.00%{opacity:0}}
.row2{opacity:1;animation:k-row2 14s linear infinite}
@keyframes k-row3{0.00%{opacity:0}33.93%{opacity:0}35.71%{opacity:1}92.50%{opacity:1}94.29%{opacity:0}100.00%{opacity:0}}
.row3{opacity:1;animation:k-row3 14s linear infinite}
@keyframes k-cmd{0.00%{opacity:0}7.14%{opacity:0}8.57%{opacity:1}94.29%{opacity:1}95.71%{opacity:0}100.00%{opacity:0}}
.cmd{opacity:1;animation:k-cmd 14s linear infinite}
@keyframes k-cv1{0.00%{transform:translateX(0px);animation-timing-function:steps(48,end)}8.57%{transform:translateX(0px);animation-timing-function:steps(48,end)}16.43%{transform:translateX(700px)}99.93%{transform:translateX(700px)}100.00%{transform:translateX(0px)}}
.cv1{transform:translateX(700px);transform-box:fill-box;animation:k-cv1 14s linear infinite}
@keyframes k-cv2{0.00%{transform:translateX(0px);animation-timing-function:steps(48,end)}16.79%{transform:translateX(0px);animation-timing-function:steps(48,end)}22.14%{transform:translateX(700px)}99.93%{transform:translateX(700px)}100.00%{transform:translateX(0px)}}
.cv2{transform:translateX(700px);transform-box:fill-box;animation:k-cv2 14s linear infinite}
@media (prefers-reduced-motion:reduce){*{animation:none!important}}</style><rect x=".5" y=".5" width="759" height="469" rx="14" fill="#0a0e16" stroke="#222b3b"/><text x="16" y="30" font-family="-apple-system,BlinkMacSystemFont,'Segoe UI','Noto Sans',Helvetica,Arial,sans-serif" font-size="11" font-weight="700" fill="#8b98ae" text-anchor="start" letter-spacing=".8">CATALOGED BY STRAZAD</text><text x="470" y="30" font-family="-apple-system,BlinkMacSystemFont,'Segoe UI','Noto Sans',Helvetica,Arial,sans-serif" font-size="12" font-weight="400" fill="#8b98ae" text-anchor="end">41 tools, 2 MCP servers</text><text x="496" y="30" font-family="-apple-system,BlinkMacSystemFont,'Segoe UI','Noto Sans',Helvetica,Arial,sans-serif" font-size="11" font-weight="700" fill="#8b98ae" text-anchor="start" letter-spacing=".8">WHAT THE ROLE SEES</text><rect x="16" y="42" width="454" height="226" rx="10" fill="#141b27" stroke="#222b3b"/><text x="30" y="66" font-family="ui-monospace,SFMono-Regular,Menlo,Consolas,'Liberation Mono',monospace" font-size="14" font-weight="700" fill="#dce4f0" text-anchor="start">demo-tools</text><text x="456" y="66" font-family="-apple-system,BlinkMacSystemFont,'Segoe UI','Noto Sans',Helvetica,Arial,sans-serif" font-size="12" font-weight="400" fill="#8b98ae" text-anchor="end">14 tools</text><rect x="28" y="80" width="212" height="21" rx="5" fill="#0a0e16" stroke="#222b3b"/><rect x="36.5" y="90" width="7" height="5.5" rx="1.2" fill="#39445a"/><path d="M38 90v-1.6a2 2 0 0 1 4 0v1.6" fill="none" stroke="#39445a" stroke-width="1.2"/><text x="52" y="94.5" font-family="ui-monospace,SFMono-Regular,Menlo,Consolas,'Liberation Mono',monospace" font-size="10" font-weight="400" fill="#8b98ae" text-anchor="start">echo</text><g class="lit0"><rect x="28" y="80" width="212" height="21" rx="5" fill="#12301d" stroke="#4bce6b"/><text x="52" y="94.5" font-family="ui-monospace,SFMono-Regular,Menlo,Consolas,'Liberation Mono',monospace" font-size="10" font-weight="700" fill="#dce4f0" text-anchor="start">echo</text><circle cx="40" cy="90.5" r="3.5" fill="#4bce6b"/></g><rect x="246" y="80" width="212" height="21" rx="5" fill="#0a0e16" stroke="#222b3b"/><rect x="254.5" y="90" width="7" height="5.5" rx="1.2" fill="#39445a"/><path d="M256 90v-1.6a2 2 0 0 1 4 0v1.6" fill="none" stroke="#39445a" stroke-width="1.2"/><text x="270" y="94.5" font-family="ui-monospace,SFMono-Regular,Menlo,Consolas,'Liberation Mono',monospace" font-size="10" font-weight="400" fill="#8b98ae" text-anchor="start">get-annotated-message</text><g class="lit1"><rect x="246" y="80" width="212" height="21" rx="5" fill="#12301d" stroke="#4bce6b"/><text x="270" y="94.5" font-family="ui-monospace,SFMono-Regular,Menlo,Consolas,'Liberation Mono',monospace" font-size="10" font-weight="700" fill="#dce4f0" text-anchor="start">get-annotated-message</text><circle cx="258" cy="90.5" r="3.5" fill="#4bce6b"/></g><rect x="28" y="106" width="212" height="21" rx="5" fill="#0a0e16" stroke="#222b3b"/><rect x="36.5" y="116" width="7" height="5.5" rx="1.2" fill="#39445a"/><path d="M38 116v-1.6a2 2 0 0 1 4 0v1.6" fill="none" stroke="#39445a" stroke-width="1.2"/><text x="52" y="120.5" font-family="ui-monospace,SFMono-Regular,Menlo,Consolas,'Liberation Mono',monospace" font-size="10" font-weight="400" fill="#8b98ae" text-anchor="start">get-env</text><g class="lit2"><rect x="28" y="106" width="212" height="21" rx="5" fill="#35270f" stroke="#e3a33b"/><text x="52" y="120.5" font-family="ui-monospace,SFMono-Regular,Menlo,Consolas,'Liberation Mono',monospace" font-size="10" font-weight="700" fill="#dce4f0" text-anchor="start">get-env</text><circle cx="40" cy="116.5" r="3.5" fill="#e3a33b"/></g><rect x="246" y="106" width="212" height="21" rx="5" fill="#0a0e16" stroke="#222b3b"/><rect x="254.5" y="116" width="7" height="5.5" rx="1.2" fill="#39445a"/><path d="M256 116v-1.6a2 2 0 0 1 4 0v1.6" fill="none" stroke="#39445a" stroke-width="1.2"/><text x="270" y="120.5" font-family="ui-monospace,SFMono-Regular,Menlo,Consolas,'Liberation Mono',monospace" font-size="10" font-weight="400" fill="#8b98ae" text-anchor="start">get-resource-links</text><rect x="28" y="132" width="212" height="21" rx="5" fill="#0a0e16" stroke="#222b3b"/><rect x="36.5" y="142" width="7" height="5.5" rx="1.2" fill="#39445a"/><path d="M38 142v-1.6a2 2 0 0 1 4 0v1.6" fill="none" stroke="#39445a" stroke-width="1.2"/><text x="52" y="146.5" font-family="ui-monospace,SFMono-Regular,Menlo,Consolas,'Liberation Mono',monospace" font-size="10" font-weight="400" fill="#8b98ae" text-anchor="start">get-resource-reference</text><rect x="246" y="132" width="212" height="21" rx="5" fill="#0a0e16" stroke="#222b3b"/><rect x="254.5" y="142" width="7" height="5.5" rx="1.2" fill="#39445a"/><path d="M256 142v-1.6a2 2 0 0 1 4 0v1.6" fill="none" stroke="#39445a" stroke-width="1.2"/><text x="270" y="146.5" font-family="ui-monospace,SFMono-Regular,Menlo,Consolas,'Liberation Mono',monospace" font-size="10" font-weight="400" fill="#8b98ae" text-anchor="start">get-roots-list</text><rect x="28" y="158" width="212" height="21" rx="5" fill="#0a0e16" stroke="#222b3b"/><rect x="36.5" y="168" width="7" height="5.5" rx="1.2" fill="#39445a"/><path d="M38 168v-1.6a2 2 0 0 1 4 0v1.6" fill="none" stroke="#39445a" stroke-width="1.2"/><text x="52" y="172.5" font-family="ui-monospace,SFMono-Regular,Menlo,Consolas,'Liberation Mono',monospace" font-size="10" font-weight="400" fill="#8b98ae" text-anchor="start">get-structured-content</text><rect x="246" y="158" width="212" height="21" rx="5" fill="#0a0e16" stroke="#222b3b"/><rect x="254.5" y="168" width="7" height="5.5" rx="1.2" fill="#39445a"/><path d="M256 168v-1.6a2 2 0 0 1 4 0v1.6" fill="none" stroke="#39445a" stroke-width="1.2"/><text x="270" y="172.5" font-family="ui-monospace,SFMono-Regular,Menlo,Consolas,'Liberation Mono',monospace" font-size="10" font-weight="400" fill="#8b98ae" text-anchor="start">get-sum</text><g class="lit3"><rect x="246" y="158" width="212" height="21" rx="5" fill="#35270f" stroke="#e3a33b"/><text x="270" y="172.5" font-family="ui-monospace,SFMono-Regular,Menlo,Consolas,'Liberation Mono',monospace" font-size="10" font-weight="700" fill="#dce4f0" text-anchor="start">get-sum</text><circle cx="258" cy="168.5" r="3.5" fill="#e3a33b"/></g><rect x="28" y="184" width="212" height="21" rx="5" fill="#0a0e16" stroke="#222b3b"/><rect x="36.5" y="194" width="7" height="5.5" rx="1.2" fill="#39445a"/><path d="M38 194v-1.6a2 2 0 0 1 4 0v1.6" fill="none" stroke="#39445a" stroke-width="1.2"/><text x="52" y="198.5" font-family="ui-monospace,SFMono-Regular,Menlo,Consolas,'Liberation Mono',monospace" font-size="10" font-weight="400" fill="#8b98ae" text-anchor="start">get-tiny-image</text><rect x="246" y="184" width="212" height="21" rx="5" fill="#0a0e16" stroke="#222b3b"/><rect x="254.5" y="194" width="7" height="5.5" rx="1.2" fill="#39445a"/><path d="M256 194v-1.6a2 2 0 0 1 4 0v1.6" fill="none" stroke="#39445a" stroke-width="1.2"/><text x="270" y="198.5" font-family="ui-monospace,SFMono-Regular,Menlo,Consolas,'Liberation Mono',monospace" font-size="10" font-weight="400" fill="#8b98ae" text-anchor="start">gzip-file-as-resource</text><rect x="28" y="210" width="212" height="21" rx="5" fill="#0a0e16" stroke="#222b3b"/><rect x="36.5" y="220" width="7" height="5.5" rx="1.2" fill="#39445a"/><path d="M38 220v-1.6a2 2 0 0 1 4 0v1.6" fill="none" stroke="#39445a" stroke-width="1.2"/><text x="52" y="224.5" font-family="ui-monospace,SFMono-Regular,Menlo,Consolas,'Liberation Mono',monospace" font-size="10" font-weight="400" fill="#8b98ae" text-anchor="start">simulate-research-query</text><rect x="246" y="210" width="212" height="21" rx="5" fill="#0a0e16" stroke="#222b3b"/><rect x="254.5" y="220" width="7" height="5.5" rx="1.2" fill="#39445a"/><path d="M256 220v-1.6a2 2 0 0 1 4 0v1.6" fill="none" stroke="#39445a" stroke-width="1.2"/><text x="270" y="224.5" font-family="ui-monospace,SFMono-Regular,Menlo,Consolas,'Liberation Mono',monospace" font-size="10" font-weight="400" fill="#8b98ae" text-anchor="start">toggle-simulated-logging</text><rect x="28" y="236" width="212" height="21" rx="5" fill="#0a0e16" stroke="#222b3b"/><rect x="36.5" y="246" width="7" height="5.5" rx="1.2" fill="#39445a"/><path d="M38 246v-1.6a2 2 0 0 1 4 0v1.6" fill="none" stroke="#39445a" stroke-width="1.2"/><text x="52" y="250.5" font-family="ui-monospace,SFMono-Regular,Menlo,Consolas,'Liberation Mono',monospace" font-size="10" font-weight="400" fill="#8b98ae" text-anchor="start">toggle-subscriber-updates</text><rect x="246" y="236" width="212" height="21" rx="5" fill="#0a0e16" stroke="#222b3b"/><rect x="254.5" y="246" width="7" height="5.5" rx="1.2" fill="#39445a"/><path d="M256 246v-1.6a2 2 0 0 1 4 0v1.6" fill="none" stroke="#39445a" stroke-width="1.2"/><text x="270" y="250.5" font-family="ui-monospace,SFMono-Regular,Menlo,Consolas,'Liberation Mono',monospace" font-size="10" font-weight="400" fill="#8b98ae" text-anchor="start">trigger-long-running-operation</text><rect x="16" y="280" width="454" height="84" rx="10" fill="#141b27" stroke="#222b3b"/><text x="30" y="304" font-family="ui-monospace,SFMono-Regular,Menlo,Consolas,'Liberation Mono',monospace" font-size="14" font-weight="700" fill="#dce4f0" text-anchor="start">midpoint</text><text x="456" y="304" font-family="-apple-system,BlinkMacSystemFont,'Segoe UI','Noto Sans',Helvetica,Arial,sans-serif" font-size="12" font-weight="400" fill="#8b98ae" text-anchor="end">27 tools, no access row for this role</text><rect x="28.0" y="316" width="25" height="17" rx="4" fill="#0a0e16" stroke="#222b3b"/><rect x="37.0" y="324" width="7" height="5.5" rx="1.2" fill="#39445a"/><path d="M38.5 324v-1.6a2 2 0 0 1 4 0v1.6" fill="none" stroke="#39445a" stroke-width="1.2"/><rect x="58.2" y="316" width="25" height="17" rx="4" fill="#0a0e16" stroke="#222b3b"/><rect x="67.2" y="324" width="7" height="5.5" rx="1.2" fill="#39445a"/><path d="M68.7 324v-1.6a2 2 0 0 1 4 0v1.6" fill="none" stroke="#39445a" stroke-width="1.2"/><rect x="88.4" y="316" width="25" height="17" rx="4" fill="#0a0e16" stroke="#222b3b"/><rect x="97.4" y="324" width="7" height="5.5" rx="1.2" fill="#39445a"/><path d="M98.9 324v-1.6a2 2 0 0 1 4 0v1.6" fill="none" stroke="#39445a" stroke-width="1.2"/><rect x="118.6" y="316" width="25" height="17" rx="4" fill="#0a0e16" stroke="#222b3b"/><rect x="127.6" y="324" width="7" height="5.5" rx="1.2" fill="#39445a"/><path d="M129.1 324v-1.6a2 2 0 0 1 4 0v1.6" fill="none" stroke="#39445a" stroke-width="1.2"/><rect x="148.8" y="316" width="25" height="17" rx="4" fill="#0a0e16" stroke="#222b3b"/><rect x="157.8" y="324" width="7" height="5.5" rx="1.2" fill="#39445a"/><path d="M159.3 324v-1.6a2 2 0 0 1 4 0v1.6" fill="none" stroke="#39445a" stroke-width="1.2"/><rect x="179.0" y="316" width="25" height="17" rx="4" fill="#0a0e16" stroke="#222b3b"/><rect x="188.0" y="324" width="7" height="5.5" rx="1.2" fill="#39445a"/><path d="M189.5 324v-1.6a2 2 0 0 1 4 0v1.6" fill="none" stroke="#39445a" stroke-width="1.2"/><rect x="209.2" y="316" width="25" height="17" rx="4" fill="#0a0e16" stroke="#222b3b"/><rect x="218.2" y="324" width="7" height="5.5" rx="1.2" fill="#39445a"/><path d="M219.7 324v-1.6a2 2 0 0 1 4 0v1.6" fill="none" stroke="#39445a" stroke-width="1.2"/><rect x="239.4" y="316" width="25" height="17" rx="4" fill="#0a0e16" stroke="#222b3b"/><rect x="248.4" y="324" width="7" height="5.5" rx="1.2" fill="#39445a"/><path d="M249.9 324v-1.6a2 2 0 0 1 4 0v1.6" fill="none" stroke="#39445a" stroke-width="1.2"/><rect x="269.6" y="316" width="25" height="17" rx="4" fill="#0a0e16" stroke="#222b3b"/><rect x="278.6" y="324" width="7" height="5.5" rx="1.2" fill="#39445a"/><path d="M280.1 324v-1.6a2 2 0 0 1 4 0v1.6" fill="none" stroke="#39445a" stroke-width="1.2"/><rect x="299.8" y="316" width="25" height="17" rx="4" fill="#0a0e16" stroke="#222b3b"/><rect x="308.8" y="324" width="7" height="5.5" rx="1.2" fill="#39445a"/><path d="M310.3 324v-1.6a2 2 0 0 1 4 0v1.6" fill="none" stroke="#39445a" stroke-width="1.2"/><rect x="330.0" y="316" width="25" height="17" rx="4" fill="#0a0e16" stroke="#222b3b"/><rect x="339.0" y="324" width="7" height="5.5" rx="1.2" fill="#39445a"/><path d="M340.5 324v-1.6a2 2 0 0 1 4 0v1.6" fill="none" stroke="#39445a" stroke-width="1.2"/><rect x="360.2" y="316" width="25" height="17" rx="4" fill="#0a0e16" stroke="#222b3b"/><rect x="369.2" y="324" width="7" height="5.5" rx="1.2" fill="#39445a"/><path d="M370.7 324v-1.6a2 2 0 0 1 4 0v1.6" fill="none" stroke="#39445a" stroke-width="1.2"/><rect x="390.4" y="316" width="25" height="17" rx="4" fill="#0a0e16" stroke="#222b3b"/><rect x="399.4" y="324" width="7" height="5.5" rx="1.2" fill="#39445a"/><path d="M400.9 324v-1.6a2 2 0 0 1 4 0v1.6" fill="none" stroke="#39445a" stroke-width="1.2"/><rect x="420.59999999999997" y="316" width="25" height="17" rx="4" fill="#0a0e16" stroke="#222b3b"/><rect x="429.59999999999997" y="324" width="7" height="5.5" rx="1.2" fill="#39445a"/><path d="M431.09999999999997 324v-1.6a2 2 0 0 1 4 0v1.6" fill="none" stroke="#39445a" stroke-width="1.2"/><rect x="28.0" y="338" width="25" height="17" rx="4" fill="#0a0e16" stroke="#222b3b"/><rect x="37.0" y="346" width="7" height="5.5" rx="1.2" fill="#39445a"/><path d="M38.5 346v-1.6a2 2 0 0 1 4 0v1.6" fill="none" stroke="#39445a" stroke-width="1.2"/><rect x="58.2" y="338" width="25" height="17" rx="4" fill="#0a0e16" stroke="#222b3b"/><rect x="67.2" y="346" width="7" height="5.5" rx="1.2" fill="#39445a"/><path d="M68.7 346v-1.6a2 2 0 0 1 4 0v1.6" fill="none" stroke="#39445a" stroke-width="1.2"/><rect x="88.4" y="338" width="25" height="17" rx="4" fill="#0a0e16" stroke="#222b3b"/><rect x="97.4" y="346" width="7" height="5.5" rx="1.2" fill="#39445a"/><path d="M98.9 346v-1.6a2 2 0 0 1 4 0v1.6" fill="none" stroke="#39445a" stroke-width="1.2"/><rect x="118.6" y="338" width="25" height="17" rx="4" fill="#0a0e16" stroke="#222b3b"/><rect x="127.6" y="346" width="7" height="5.5" rx="1.2" fill="#39445a"/><path d="M129.1 346v-1.6a2 2 0 0 1 4 0v1.6" fill="none" stroke="#39445a" stroke-width="1.2"/><rect x="148.8" y="338" width="25" height="17" rx="4" fill="#0a0e16" stroke="#222b3b"/><rect x="157.8" y="346" width="7" height="5.5" rx="1.2" fill="#39445a"/><path d="M159.3 346v-1.6a2 2 0 0 1 4 0v1.6" fill="none" stroke="#39445a" stroke-width="1.2"/><rect x="179.0" y="338" width="25" height="17" rx="4" fill="#0a0e16" stroke="#222b3b"/><rect x="188.0" y="346" width="7" height="5.5" rx="1.2" fill="#39445a"/><path d="M189.5 346v-1.6a2 2 0 0 1 4 0v1.6" fill="none" stroke="#39445a" stroke-width="1.2"/><rect x="209.2" y="338" width="25" height="17" rx="4" fill="#0a0e16" stroke="#222b3b"/><rect x="218.2" y="346" width="7" height="5.5" rx="1.2" fill="#39445a"/><path d="M219.7 346v-1.6a2 2 0 0 1 4 0v1.6" fill="none" stroke="#39445a" stroke-width="1.2"/><rect x="239.4" y="338" width="25" height="17" rx="4" fill="#0a0e16" stroke="#222b3b"/><rect x="248.4" y="346" width="7" height="5.5" rx="1.2" fill="#39445a"/><path d="M249.9 346v-1.6a2 2 0 0 1 4 0v1.6" fill="none" stroke="#39445a" stroke-width="1.2"/><rect x="269.6" y="338" width="25" height="17" rx="4" fill="#0a0e16" stroke="#222b3b"/><rect x="278.6" y="346" width="7" height="5.5" rx="1.2" fill="#39445a"/><path d="M280.1 346v-1.6a2 2 0 0 1 4 0v1.6" fill="none" stroke="#39445a" stroke-width="1.2"/><rect x="299.8" y="338" width="25" height="17" rx="4" fill="#0a0e16" stroke="#222b3b"/><rect x="308.8" y="346" width="7" height="5.5" rx="1.2" fill="#39445a"/><path d="M310.3 346v-1.6a2 2 0 0 1 4 0v1.6" fill="none" stroke="#39445a" stroke-width="1.2"/><rect x="330.0" y="338" width="25" height="17" rx="4" fill="#0a0e16" stroke="#222b3b"/><rect x="339.0" y="346" width="7" height="5.5" rx="1.2" fill="#39445a"/><path d="M340.5 346v-1.6a2 2 0 0 1 4 0v1.6" fill="none" stroke="#39445a" stroke-width="1.2"/><rect x="360.2" y="338" width="25" height="17" rx="4" fill="#0a0e16" stroke="#222b3b"/><rect x="369.2" y="346" width="7" height="5.5" rx="1.2" fill="#39445a"/><path d="M370.7 346v-1.6a2 2 0 0 1 4 0v1.6" fill="none" stroke="#39445a" stroke-width="1.2"/><rect x="390.4" y="338" width="25" height="17" rx="4" fill="#0a0e16" stroke="#222b3b"/><rect x="399.4" y="346" width="7" height="5.5" rx="1.2" fill="#39445a"/><path d="M400.9 346v-1.6a2 2 0 0 1 4 0v1.6" fill="none" stroke="#39445a" stroke-width="1.2"/><rect x="496" y="42" width="248" height="322" rx="10" fill="#141b27" stroke="#222b3b"/><text x="512" y="66" font-family="-apple-system,BlinkMacSystemFont,'Segoe UI','Noto Sans',Helvetica,Arial,sans-serif" font-size="11" font-weight="700" fill="#8b98ae" text-anchor="start" letter-spacing=".8">APPLICATION ROLE</text><text x="512" y="88" font-family="ui-monospace,SFMono-Regular,Menlo,Consolas,'Liberation Mono',monospace" font-size="14" font-weight="700" fill="#dce4f0" text-anchor="start">demo-tools-readers</text><path d="M512 104H728" stroke="#222b3b"/><g class="zero"><text x="512" y="150" font-family="-apple-system,BlinkMacSystemFont,'Segoe UI','Noto Sans',Helvetica,Arial,sans-serif" font-size="44" font-weight="700" fill="#dce4f0" text-anchor="start">0</text><text x="512" y="172" font-family="-apple-system,BlinkMacSystemFont,'Segoe UI','Noto Sans',Helvetica,Arial,sans-serif" font-size="12" font-weight="400" fill="#8b98ae" text-anchor="start">of the 41 cataloged tools</text></g><g class="four"><text x="512" y="150" font-family="-apple-system,BlinkMacSystemFont,'Segoe UI','Noto Sans',Helvetica,Arial,sans-serif" font-size="44" font-weight="700" fill="#dce4f0" text-anchor="start">4</text><text x="512" y="172" font-family="-apple-system,BlinkMacSystemFont,'Segoe UI','Noto Sans',Helvetica,Arial,sans-serif" font-size="12" font-weight="400" fill="#8b98ae" text-anchor="start">of the 41 cataloged tools</text></g><g class="empty"><rect x="512" y="196" width="216" height="64" rx="8" fill="none" stroke="#39445a" stroke-dasharray="4 4"/><rect x="524.5" y="218" width="7" height="5.5" rx="1.2" fill="#8b98ae"/><path d="M526 218v-1.6a2 2 0 0 1 4 0v1.6" fill="none" stroke="#8b98ae" stroke-width="1.2"/><text x="540" y="222" font-family="-apple-system,BlinkMacSystemFont,'Segoe UI','Noto Sans',Helvetica,Arial,sans-serif" font-size="12" font-weight="700" fill="#dce4f0" text-anchor="start">default deny</text><text x="524" y="240" font-family="-apple-system,BlinkMacSystemFont,'Segoe UI','Noto Sans',Helvetica,Arial,sans-serif" font-size="11" font-weight="400" fill="#8b98ae" text-anchor="start">A tool without access does not</text><text x="524" y="254" font-family="-apple-system,BlinkMacSystemFont,'Segoe UI','Noto Sans',Helvetica,Arial,sans-serif" font-size="11" font-weight="400" fill="#8b98ae" text-anchor="start">exist for the role.</text></g><g class="row0"><rect x="508" y="192" width="224" height="32" rx="7" fill="#12301d"/><path d="M518 208l3.5 3.5 6.5-7" fill="none" stroke="#4bce6b" stroke-width="2" stroke-linecap="round" stroke-linejoin="round"/><text x="538" y="207" font-family="ui-monospace,SFMono-Regular,Menlo,Consolas,'Liberation Mono',monospace" font-size="11.5" font-weight="700" fill="#dce4f0" text-anchor="start">echo</text><text x="538" y="219" font-family="ui-monospace,SFMono-Regular,Menlo,Consolas,'Liberation Mono',monospace" font-size="10" font-weight="400" fill="#4bce6b" text-anchor="start">visible</text></g><g class="row1"><rect x="508" y="232" width="224" height="32" rx="7" fill="#12301d"/><path d="M518 248l3.5 3.5 6.5-7" fill="none" stroke="#4bce6b" stroke-width="2" stroke-linecap="round" stroke-linejoin="round"/><text x="538" y="247" font-family="ui-monospace,SFMono-Regular,Menlo,Consolas,'Liberation Mono',monospace" font-size="11.5" font-weight="700" fill="#dce4f0" text-anchor="start">get-annotated-message</text><text x="538" y="259" font-family="ui-monospace,SFMono-Regular,Menlo,Consolas,'Liberation Mono',monospace" font-size="10" font-weight="400" fill="#4bce6b" text-anchor="start">visible</text></g><g class="row2"><rect x="508" y="272" width="224" height="32" rx="7" fill="#35270f"/><rect x="518" y="281" width="3.2" height="12" rx=".8" fill="#e3a33b"/><rect x="524.5" y="281" width="3.2" height="12" rx=".8" fill="#e3a33b"/><text x="538" y="287" font-family="ui-monospace,SFMono-Regular,Menlo,Consolas,'Liberation Mono',monospace" font-size="11.5" font-weight="700" fill="#dce4f0" text-anchor="start">get-env</text><text x="538" y="299" font-family="ui-monospace,SFMono-Regular,Menlo,Consolas,'Liberation Mono',monospace" font-size="10" font-weight="400" fill="#e3a33b" text-anchor="start">approve_gated</text></g><g class="row3"><rect x="508" y="312" width="224" height="32" rx="7" fill="#35270f"/><rect x="518" y="321" width="3.2" height="12" rx=".8" fill="#e3a33b"/><rect x="524.5" y="321" width="3.2" height="12" rx=".8" fill="#e3a33b"/><text x="538" y="327" font-family="ui-monospace,SFMono-Regular,Menlo,Consolas,'Liberation Mono',monospace" font-size="11.5" font-weight="700" fill="#dce4f0" text-anchor="start">get-sum</text><text x="538" y="339" font-family="ui-monospace,SFMono-Regular,Menlo,Consolas,'Liberation Mono',monospace" font-size="10" font-weight="400" fill="#e3a33b" text-anchor="start">approve_gated</text></g><rect x="16" y="376" width="728" height="80" rx="10" fill="#0b0f17" stroke="#222b3b"/><text x="32" y="400" font-family="ui-monospace,SFMono-Regular,Menlo,Consolas,'Liberation Mono',monospace" font-size="12.5" font-weight="400" fill="#8b949e" text-anchor="start"># give the role access to four demo-tools tools</text><clipPath id="cc"><rect x="16" y="376" width="728" height="80" rx="10"/></clipPath><g class="cmd" clip-path="url(#cc)"><text x="32" y="421" font-family="ui-monospace,SFMono-Regular,Menlo,Consolas,'Liberation Mono',monospace" font-size="12.5" font-weight="400" fill="#e6edf3" text-anchor="start">$ strazactl apps bind demo-tools --role demo-tools-readers \</text><text x="32" y="441" font-family="ui-monospace,SFMono-Regular,Menlo,Consolas,'Liberation Mono',monospace" font-size="12.5" font-weight="400" fill="#e6edf3" text-anchor="start">    --tools "echo,get-annotated-message,get-env,get-sum"</text><rect class="cv1" x="44" y="407" width="700" height="19" fill="#0b0f17"/><rect class="cv2" x="44" y="427" width="700" height="19" fill="#0b0f17"/></g></svg>
