<svg xmlns="http://www.w3.org/2000/svg" viewBox="0 0 211 32" fill="none" role="img" aria-labelledby="t"><title id="t">Straza</title><path fill="#f6b63c" d="M7.4 5 H24.6 A1.4 1.4 0 0 1 26 6.4 V15.2 C26 22.1 21.7 26.9 16 29.1 C10.3 26.9 6 22.1 6 15.2 V6.4 A1.4 1.4 0 0 1 7.4 5 Z"/><path fill="#0b0d12" d="M16 7 L17.11 12.52 L19.68 11.52 L18.68 14.09 L24.2 15.2 L18.68 16.31 L19.68 18.88 L17.11 17.88 L16 23.4 L14.89 17.88 L12.32 18.88 L13.32 16.31 L7.8 15.2 L13.32 14.09 L12.32 11.52 L14.89 12.52 Z"/><path fill="#141a24" d="M54.51 27.34Q52.2 27.34 50.23 27.07Q48.25 26.8 46.75 26.09Q45.24 25.38 44.42 24.11Q43.59 22.85 43.59 20.89Q43.59 20.83 43.59 20.75Q43.59 20.66 43.62 20.6H48.42Q48.4 20.72 48.4 20.86Q48.4 21 48.4 21.17Q48.4 22.05 49.11 22.58Q49.82 23.11 51.15 23.35Q52.49 23.59 54.28 23.59Q55.05 23.59 55.83 23.53Q56.61 23.48 57.34 23.35Q58.06 23.22 58.63 22.99Q59.2 22.76 59.54 22.41Q59.88 22.05 59.88 21.57Q59.88 20.89 59.21 20.48Q58.54 20.06 57.42 19.81Q56.3 19.55 54.89 19.37Q53.48 19.18 51.98 18.94Q50.47 18.7 49.06 18.29Q47.66 17.88 46.53 17.21Q45.41 16.54 44.74 15.49Q44.08 14.44 44.08 12.9Q44.08 11.48 44.79 10.4Q45.5 9.32 46.83 8.58Q48.17 7.84 50.06 7.49Q51.95 7.13 54.31 7.13Q56.7 7.13 58.54 7.51Q60.39 7.9 61.66 8.62Q62.92 9.35 63.56 10.41Q64.2 11.48 64.2 12.84V13.27H59.42V12.96Q59.42 12.33 58.81 11.86Q58.2 11.39 57.11 11.11Q56.01 10.83 54.56 10.83Q52.66 10.83 51.47 11.07Q50.27 11.31 49.7 11.72Q49.13 12.13 49.13 12.62Q49.13 13.24 49.8 13.61Q50.47 13.98 51.59 14.21Q52.72 14.44 54.12 14.62Q55.53 14.81 57.04 15.06Q58.54 15.32 59.95 15.7Q61.36 16.08 62.48 16.77Q63.6 17.45 64.27 18.46Q64.94 19.47 64.94 20.97Q64.94 23.28 63.6 24.68Q62.27 26.09 59.92 26.72Q57.58 27.34 54.51 27.34Z M77.19 27V11.62H68.58V7.47H90.66V11.62H82.08V27Z M97.06 27V7.47H112.84Q114.94 7.47 116.29 8.32Q117.64 9.18 118.32 10.57Q119.01 11.96 119.01 13.67Q119.01 15.43 118.11 16.95Q117.21 18.47 115.4 19.35L119.46 27H113.95L110.51 20.23H101.98V27ZM101.98 16.37H111.39Q112.58 16.37 113.28 15.64Q113.97 14.92 113.97 13.78Q113.97 12.99 113.66 12.45Q113.35 11.91 112.78 11.62Q112.21 11.34 111.39 11.34H101.98Z M126.03 27H131.06L132.76 23.48H143.88L145.58 27H150.93L141.23 7.47H141.06L138.48 10.88L135.89 7.47H135.72ZM134.55 19.69 136.63 15.26Q136.83 14.86 137.1 14.19Q137.37 13.53 137.68 12.82Q137.99 12.1 138.22 11.54H138.45Q138.51 11.65 138.7 12.13Q138.9 12.62 139.14 13.21Q139.39 13.81 139.64 14.38Q139.9 14.95 140.01 15.23L142.09 19.69Z M154.59 27V25.01L167.3 11.34H155.48V7.47H175.57V9.43L162.81 23.11H175.71V27Z M179.47 27H184.5L186.2 23.48H197.32L199.02 27H204.37L194.67 7.47H194.5L191.92 10.88L189.33 7.47H189.16ZM187.99 19.69 190.07 15.26Q190.27 14.86 190.54 14.19Q190.81 13.53 191.12 12.82Q191.43 12.1 191.66 11.54H191.89Q191.95 11.65 192.14 12.13Q192.34 12.62 192.58 13.21Q192.83 13.81 193.08 14.38Q193.34 14.95 193.45 15.23L195.53 19.69Z"/></svg>
